<svg width="800" height="800" viewBox="0 0 800 800" fill="none" xmlns="http://www.w3.org/2000/svg">
  <rect width="800" height="800" rx="48" fill="#F7F3EE"/>
  <rect x="84" y="84" width="632" height="632" rx="36" fill="#FFFFFF"/>
  <rect x="132" y="132" width="156" height="156" rx="24" fill="#243340"/>
  <rect x="164" y="164" width="92" height="92" rx="16" fill="#F7F3EE"/>
  <rect x="512" y="132" width="156" height="156" rx="24" fill="#243340"/>
  <rect x="544" y="164" width="92" height="92" rx="16" fill="#F7F3EE"/>
  <rect x="132" y="512" width="156" height="156" rx="24" fill="#243340"/>
  <rect x="164" y="544" width="92" height="92" rx="16" fill="#F7F3EE"/>
  <rect x="358" y="140" width="42" height="42" rx="10" fill="#243340"/>
  <rect x="424" y="140" width="42" height="42" rx="10" fill="#243340"/>
  <rect x="358" y="206" width="42" height="42" rx="10" fill="#243340"/>
  <rect x="424" y="206" width="42" height="42" rx="10" fill="#243340"/>
  <rect x="358" y="358" width="42" height="42" rx="10" fill="#243340"/>
  <rect x="424" y="358" width="42" height="42" rx="10" fill="#243340"/>
  <rect x="490" y="358" width="42" height="42" rx="10" fill="#243340"/>
  <rect x="556" y="358" width="42" height="42" rx="10" fill="#243340"/>
  <rect x="358" y="424" width="42" height="42" rx="10" fill="#243340"/>
  <rect x="490" y="424" width="42" height="42" rx="10" fill="#243340"/>
  <rect x="622" y="424" width="42" height="42" rx="10" fill="#243340"/>
  <rect x="358" y="490" width="42" height="42" rx="10" fill="#243340"/>
  <rect x="424" y="490" width="42" height="42" rx="10" fill="#243340"/>
  <rect x="556" y="490" width="42" height="42" rx="10" fill="#243340"/>
  <rect x="622" y="490" width="42" height="42" rx="10" fill="#243340"/>
  <rect x="358" y="556" width="42" height="42" rx="10" fill="#243340"/>
  <rect x="490" y="556" width="42" height="42" rx="10" fill="#243340"/>
  <rect x="556" y="556" width="42" height="42" rx="10" fill="#243340"/>
  <rect x="622" y="556" width="42" height="42" rx="10" fill="#243340"/>
  <text x="188" y="742" fill="#243340" font-family="Microsoft YaHei, PingFang SC, sans-serif" font-size="42" font-weight="700">
    微信二维码占位图
  </text>
</svg>
